<svg width="24" height="24" viewBox="0 0 24 24" fill="none" xmlns="http://www.w3.org/2000/svg">
<path d="M17.4937 11.25C17.5312 11.3063 17.6249 11.2688 17.6249 11.2125C17.7374 10.2 18.0374 7.40625 20.0249 6.80625C20.6624 6.61875 21.2999 7.06875 21.3749 7.65C21.5062 8.5875 20.4374 11.0063 20.5312 13.2188C20.5499 13.575 21.1499 17.3438 19.5562 19.575C17.9624 21.8063 14.1749 24.075 10.4062 20.625C8.45617 18.8438 8.45617 18.1313 6.03742 15.6375C5.54992 15.15 3.59992 13.0125 3.07492 12.3563C2.38117 11.475 3.48742 10.3125 4.33117 10.9125C4.72492 11.1938 8.21242 14.1188 8.34367 14.25C8.60617 14.475 8.92492 14.1563 8.73742 13.9313C6.59992 11.1188 4.53742 8.5875 3.97492 7.6125C3.41242 6.6375 4.76242 5.5875 5.54992 6.43125C6.09367 6.99375 10.1249 11.7 10.3124 11.9063C10.4999 12.1125 10.8187 11.85 10.7062 11.5875C10.5749 11.3438 7.31242 5.6625 6.73117 4.36875C6.22492 3.225 7.91242 2.15625 8.69992 3.3375C9.33742 4.275 12.8999 10.2 13.0312 10.4063C13.1999 10.7063 13.5749 10.5188 13.4249 10.1813C13.3124 9.9375 11.1187 3.9375 10.9499 3.31875C10.6499 2.23125 12.2062 1.33125 12.9374 2.56875C13.9312 4.275 15.8999 9.4875 17.4937 11.25Z" fill="#FFCA28"/>
<mask id="mask0_472_214" style="mask-type:luminance" maskUnits="userSpaceOnUse" x="2" y="1" width="20" height="22">
<path d="M17.4937 11.25C17.5312 11.3063 17.6249 11.2688 17.6249 11.2125C17.7374 10.2 18.0374 7.40625 20.0249 6.80625C20.6624 6.61875 21.2999 7.06875 21.3749 7.65C21.5062 8.5875 20.4374 11.0063 20.5312 13.2188C20.5499 13.575 21.1499 17.3438 19.5562 19.575C17.9624 21.8063 14.1749 24.075 10.4062 20.625C8.45617 18.8438 8.45617 18.1313 6.03742 15.6375C5.54992 15.15 3.59992 13.0125 3.07492 12.3563C2.38117 11.475 3.48742 10.3125 4.33117 10.9125C4.72492 11.1938 8.21242 14.1188 8.34367 14.25C8.60617 14.475 8.92492 14.1563 8.73742 13.9313C6.59992 11.1188 4.53742 8.5875 3.97492 7.6125C3.41242 6.6375 4.76242 5.5875 5.54992 6.43125C6.09367 6.99375 10.1249 11.7 10.3124 11.9063C10.4999 12.1125 10.8187 11.85 10.7062 11.5875C10.5749 11.3438 7.31242 5.6625 6.73117 4.36875C6.22492 3.225 7.91242 2.15625 8.69992 3.3375C9.33742 4.275 12.8999 10.2 13.0312 10.4063C13.1999 10.7063 13.5749 10.5188 13.4249 10.1813C13.3124 9.9375 11.1187 3.9375 10.9499 3.31875C10.6499 2.23125 12.2062 1.33125 12.9374 2.56875C13.9312 4.275 15.8999 9.4875 17.4937 11.25Z" fill="white"/>
</mask>
<g mask="url(#mask0_472_214)">
<path d="M17.0999 11.2875C14.7749 13.1813 13.7436 15.8813 15.6561 18.6938C15.8249 18.9375 16.1811 18.7125 16.0311 18.4313C15.2436 17.025 14.6624 14.4938 17.3811 11.85C17.6999 12 18.0749 11.6813 18.0936 11.4C18.2999 9.63751 18.5061 8.17501 19.8186 7.35001C20.3249 7.03126 20.9811 7.25626 21.0186 8.02501C21.0186 8.02501 21.4311 8.06251 21.5999 8.08126C21.6936 7.68751 21.8811 6.97501 21.8811 6.95626C21.8811 6.93751 19.6686 6.11251 19.6686 6.11251L17.7374 8.02501L17.0999 11.2875ZM13.3499 10.5188C13.6124 10.3875 13.8374 10.1813 13.7249 9.90001C13.6124 9.60001 11.5311 3.93751 11.3999 3.50626C11.1374 2.71876 11.7936 2.10001 12.3749 2.36251C12.6936 2.51251 12.8436 2.00626 12.6749 1.93126C12.5061 1.85626 12.1124 1.50001 11.3249 1.89376C9.91862 2.60626 10.7436 4.18126 11.1186 5.10001C11.4936 6.01876 13.3499 10.5188 13.3499 10.5188ZM10.6311 11.925C10.9499 11.7 11.1936 11.5125 10.9124 11.0625C10.7249 10.7625 7.55612 5.00626 7.23737 4.44376C6.76862 3.63751 7.74362 2.92501 8.28737 3.43126C8.53112 3.65626 8.90612 3.16876 8.71862 2.98126C8.53112 2.79376 7.87487 2.25001 7.04987 2.79376C6.22487 3.33751 6.20612 3.99376 6.31862 4.27501C6.41237 4.55626 10.6311 11.925 10.6311 11.925ZM8.75612 14.2313C8.98112 13.8938 9.13112 13.725 8.81237 13.2938C8.49362 12.8625 4.70612 7.91251 4.49987 7.63126C3.97487 6.93751 4.74362 6.33751 5.11862 6.54376C5.47487 6.75001 5.68112 6.16876 5.38112 6.01876C5.08112 5.86876 4.59362 5.70001 4.14362 6.01876C3.69362 6.33751 3.43112 6.99376 3.50612 7.36876C3.56237 7.74376 8.75612 14.2313 8.75612 14.2313Z" fill="#FAA700"/>
<path d="M17.4 21.3C14.3625 22.7438 12.0937 21.6188 10.6312 20.1938C8.96246 18.5625 8.17496 17.0625 7.06871 16.05C6.69371 15.6938 3.73121 12.5438 3.37496 12C3.09371 11.55 3.65621 10.7813 4.27496 11.2125C4.66871 11.475 4.85621 10.9125 4.59371 10.7625C4.33121 10.6125 3.74996 10.2938 3.13121 10.7625C2.51246 11.2125 2.49371 12.0188 2.64371 12.2813C2.79371 12.5438 11.9062 23.0063 11.9062 23.0063L15.6187 22.9125L17.6062 21.6938L17.4 21.3Z" fill="#FAA700"/>
</g>
<mask id="mask1_472_214" style="mask-type:luminance" maskUnits="userSpaceOnUse" x="2" y="1" width="20" height="22">
<path d="M17.4937 11.25C17.5312 11.3063 17.6249 11.2688 17.6249 11.2125C17.7374 10.2 18.0374 7.40625 20.0249 6.80625C20.6624 6.61875 21.2999 7.06875 21.3749 7.65C21.5062 8.5875 20.4374 11.0063 20.5312 13.2188C20.5499 13.575 21.1499 17.3438 19.5562 19.575C17.9624 21.8063 14.1749 24.075 10.4062 20.625C8.45617 18.8438 8.45617 18.1313 6.03742 15.6375C5.54992 15.15 3.59992 13.0125 3.07492 12.3563C2.38117 11.475 3.48742 10.3125 4.33117 10.9125C4.72492 11.1938 8.21242 14.1188 8.34367 14.25C8.60617 14.475 8.92492 14.1563 8.73742 13.9313C6.59992 11.1188 4.53742 8.5875 3.97492 7.6125C3.41242 6.6375 4.76242 5.5875 5.54992 6.43125C6.09367 6.99375 10.1249 11.7 10.3124 11.9063C10.4999 12.1125 10.8187 11.85 10.7062 11.5875C10.5749 11.3438 7.31242 5.6625 6.73117 4.36875C6.22492 3.225 7.91242 2.15625 8.69992 3.3375C9.33742 4.275 12.8999 10.2 13.0312 10.4063C13.1999 10.7063 13.5749 10.5188 13.4249 10.1813C13.3124 9.9375 11.1187 3.9375 10.9499 3.31875C10.6499 2.23125 12.2062 1.33125 12.9374 2.56875C13.9312 4.275 15.8999 9.4875 17.4937 11.25Z" fill="white"/>
</mask>
<g mask="url(#mask1_472_214)">
<path d="M20.9062 6.75001C21 6.99376 21.1125 7.42501 21 8.00626C20.5687 10.1813 19.8562 11.4563 20.0812 13.8C20.4937 18.3 18.9187 21.7125 13.5 22.3875C12.9562 22.4625 13.1062 22.875 13.3875 22.8375C13.5187 22.8188 17.3812 22.125 17.3812 22.125C17.3812 22.125 20.9625 19.0688 20.9625 19.0313C20.9625 18.9938 21.8625 7.33126 21.8625 7.33126L20.9062 6.75001ZM11.5312 1.96876C11.775 2.00626 12.3 2.21251 12.675 2.94376C13.05 3.67501 14.8875 7.89376 15.1312 8.34376C15.375 8.79376 16.3687 11.025 17.175 11.7C17.4375 11.9063 17.5687 11.55 17.5687 11.55L17.5875 10.9688L13.2375 1.06876L11.7937 1.12501L11.5312 1.96876ZM13.35 10.5188C12.9937 10.6875 12.7312 10.8375 12.4687 10.425C12.3 10.125 10.4812 7.01251 8.19371 3.37501C8.00621 3.09376 7.57496 2.85001 7.23746 2.98126C6.89996 3.13126 6.82496 2.70001 6.99371 2.60626C7.16246 2.51251 8.21246 1.93126 8.92496 3.13126C9.63746 4.33126 13.35 10.5188 13.35 10.5188ZM10.6312 11.925C10.35 12.1313 10.0687 12.3938 9.71246 11.9625C9.37496 11.55 5.53121 6.97501 5.30621 6.69376C5.08121 6.41251 4.61246 6.16876 4.25621 6.39376C4.01246 6.54376 3.78746 6.09376 3.93746 5.98126C4.08746 5.86876 4.93121 5.11876 5.49371 5.75626C6.05621 6.39376 10.6312 11.925 10.6312 11.925ZM8.75621 14.2313C8.51246 14.4938 8.24996 14.6438 7.89371 14.3813C7.53746 14.1188 4.34996 11.4375 4.14371 11.25C3.93746 11.0625 3.33746 10.7813 2.88746 11.2313C2.71871 11.4 2.41871 11.1188 2.58746 10.95C2.75621 10.7625 3.67496 9.82501 4.40621 10.4438C5.13746 11.0625 8.75621 14.2313 8.75621 14.2313Z" fill="#B55E19"/>
</g>
<path d="M1.98746 15.2437C2.56871 16.9687 3.44996 18.0375 4.89371 19.0125C5.15621 19.2 5.00621 19.575 4.70621 19.4437C3.35621 18.9 1.85621 17.7 1.49996 15.3187C1.44371 15 1.89371 14.9437 1.98746 15.2437ZM3.11246 14.2125C3.69371 15.9375 4.57496 17.0062 6.01871 17.9812C6.28121 18.1687 6.13121 18.5437 5.83121 18.4125C4.48121 17.8687 2.98121 16.6687 2.62496 14.2875C2.58746 13.9687 3.01871 13.9125 3.11246 14.2125ZM17.5312 6.4875C17.0812 4.725 16.2562 3.6 14.8875 2.55C14.625 2.3625 14.8125 1.9875 15.1125 2.11875C16.425 2.7375 17.85 4.05 18.0375 6.45C18.0562 6.76875 17.6062 6.80625 17.5312 6.4875ZM18.75 5.5875C18.3 3.825 17.475 2.7 16.1062 1.65C15.8437 1.4625 16.0312 1.0875 16.3312 1.21875C17.6437 1.8375 19.0687 3.15 19.2562 5.55C19.275 5.85 18.8437 5.8875 18.75 5.5875Z" fill="#B0BEC5"/>
</svg>
