<svg xmlns="http://www.w3.org/2000/svg" width="33.064" height="33.231" viewBox="0 0 33.064 33.231"><g transform="translate(-1.468 -1.644)" opacity="0.33"><path d="M16.357,2.356a2.25,2.25,0,0,1,3.285,0L33.918,17.588a2.248,2.248,0,0,1-1.643,3.787h-6.4v2.25a2.25,2.25,0,0,1-2.25,2.25H12.375a2.25,2.25,0,0,1-2.25-2.25v-2.25h-6.4a2.252,2.252,0,0,1-1.642-3.789ZM10.125,30.375a2.25,2.25,0,0,1,2.25-2.25h11.25a2.25,2.25,0,0,1,2.25,2.25v2.25a2.25,2.25,0,0,1-2.25,2.25H12.375a2.25,2.25,0,0,1-2.25-2.25Z" fill="#fff" fill-rule="evenodd"/></g></svg>