<svg xmlns="http://www.w3.org/2000/svg" width="62.864" height="53.349" viewBox="0 0 62.864 53.349"><path d="M22.45,8.892H40.412V4.445H22.45V8.89ZM62.862,31.12V47.792a5.325,5.325,0,0,1-1.648,3.925,5.431,5.431,0,0,1-3.964,1.632H5.612a5.431,5.431,0,0,1-3.964-1.632A5.324,5.324,0,0,1,0,47.792V31.12H23.573v5.557a2.126,2.126,0,0,0,.667,1.563,2.168,2.168,0,0,0,1.579.66H37.045a2.168,2.168,0,0,0,1.579-.66,2.126,2.126,0,0,0,.667-1.563V31.12H62.864Zm-26.942,0v4.445H26.942V31.12h8.981ZM62.862,14.448V27.785H0V14.448a5.324,5.324,0,0,1,1.648-3.925A5.431,5.431,0,0,1,5.612,8.892H17.959V3.335A3.2,3.2,0,0,1,18.942.973,3.273,3.273,0,0,1,21.328,0h20.2a3.261,3.261,0,0,1,2.385.973A3.209,3.209,0,0,1,44.9,3.335V8.892H57.248a5.431,5.431,0,0,1,3.964,1.632,5.325,5.325,0,0,1,1.648,3.925Z" fill="#c8ba70"/></svg>