<svg xmlns="http://www.w3.org/2000/svg" width="38" height="36.167" viewBox="0 0 38 36.167"><g transform="translate(-4663.667 -1324)"><g transform="translate(4664 1324)" fill="#3d3c3c"><path d="M 18.95184326171875 27.4333438873291 C 13.73246383666992 27.4333438873291 9.224843978881836 27.4333438873291 6.031134128570557 26.35855293273926 C 4.503113746643066 25.84431457519531 3.386123895645142 25.11253356933594 2.616323947906494 24.12139320373535 C 1.766972064971924 23.02781867980957 1.292793869972229 21.57313346862793 1.167491555213928 19.67576217651367 C 1.22197949886322 17.1632137298584 1.605854630470276 15.53438758850098 2.374223947525024 14.55234432220459 C 3.038463830947876 13.70337390899658 4.127203941345215 13.17674350738525 6.014693737030029 12.7914342880249 L 7.242993831634521 12.54068374633789 L 7.214273929595947 11.28737354278564 C 7.147753715515137 8.38525390625 7.904243946075439 6.105203628540039 9.462754249572754 4.510573863983154 C 10.43217372894287 3.518673896789551 11.73730373382568 2.759713888168335 13.34187412261963 2.254793882369995 C 14.93348407745361 1.753953814506531 16.82095336914063 1.500003814697266 18.95184326171875 1.500003814697266 C 22.70443344116211 1.500003814697266 25.44297409057617 2.168743848800659 27.32394409179688 3.544433832168579 C 29.46437454223633 5.109883785247803 30.52785301208496 7.660163879394531 30.57514381408691 11.34101390838623 L 30.59099388122559 12.57418346405029 L 31.80396461486816 12.79705429077148 C 34.09295272827148 13.21761417388916 34.88832473754883 14.17398357391357 35.2874755859375 14.85677337646484 C 35.88388824462891 15.877028465271 36.16342544555664 17.40742111206055 36.16647720336914 19.67074012756348 C 35.97790908813477 23.31190490722656 34.61474609375 25.31489753723145 31.61346435546875 26.36425399780273 C 28.55573463439941 27.4333438873291 24.10516357421875 27.4333438873291 18.95184326171875 27.4333438873291 Z" stroke="none"/><path d="M 18.95184326171875 3.000003814697266 C 16.25329399108887 3.000003814697266 12.60261344909668 3.443964004516602 10.53549385070801 5.559003829956055 C 9.25201416015625 6.872243881225586 8.656154632568359 8.734764099121094 8.713874816894531 11.25299453735352 L 8.771333694458008 13.75962352752686 L 6.314714431762695 14.26112365722656 C 4.418605804443359 14.64819431304932 3.855934143066406 15.09279346466064 3.555595397949219 15.47666358947754 C 3.0177001953125 16.16413879394531 2.719451904296875 17.56507873535156 2.668674468994141 19.64165496826172 C 2.91058349609375 23.04123306274414 4.380149841308594 24.22026824951172 6.509572982788086 24.93689346313477 C 9.470474243164063 25.9333438873291 13.8642635345459 25.9333438873291 18.95184326171875 25.9333438873291 C 23.96851348876953 25.9333438873291 28.30106353759766 25.9333438873291 31.11839294433594 24.94830322265625 C 32.28421401977539 24.54069328308105 33.07822418212891 24.00759315490723 33.61718368530273 23.27060317993164 C 34.23539733886719 22.42524719238281 34.57885360717773 21.23466300964355 34.6663932800293 19.63239669799805 C 34.66081237792969 17.69463920593262 34.44021987915039 16.37966918945313 33.99250411987305 15.61379432678223 C 33.81817245483398 15.31558418273926 33.40993499755859 14.61722373962402 31.53290367126465 14.27235412597656 L 29.10696411132813 13.82663345336914 L 29.07527351379395 11.36028289794922 C 29.05310440063477 9.635114669799805 28.78146362304688 8.181953430175781 28.26789474487305 7.041164398193359 C 27.83975410461426 6.090133666992188 27.2413330078125 5.342384338378906 26.43844413757324 4.755163192749023 C 24.84603500366211 3.590524673461914 22.32718276977539 3.000003814697266 18.95184326171875 3.000003814697266 M 18.95184326171875 3.814697265625e-06 C 26.25520324707031 3.814697265625e-06 31.96102333068848 2.449253082275391 32.07502365112305 11.32174301147461 C 36.63947296142578 12.1603832244873 37.66650390625 15.09566402435303 37.66650390625 19.70821380615234 C 37.21015548706055 28.9333438873291 29.539794921875 28.9333438873291 18.95184326171875 28.9333438873291 C 8.363903045654297 28.9333438873291 0.2371826171875 28.9333438873291 -0.33349609375 19.70821380615234 C -0.2193260192871094 13.83768367767334 1.606552124023438 12.1603832244873 5.714664459228516 11.32174301147461 C 5.528114318847656 3.183053970336914 11.1921443939209 3.814697265625e-06 18.95184326171875 3.814697265625e-06 Z" stroke="none" fill="#8d8888"/></g><rect width="23.708" height="17.551" transform="translate(4670.62 1342.615)" fill="#3d3c3c"/><path d="M23.245,12.909a2.463,2.463,0,0,0-3.319,0l-1.862,1.742V6.7a2.353,2.353,0,0,0-4.7,0v7.954l-1.862-1.742a2.463,2.463,0,0,0-3.32,0,2.1,2.1,0,0,0,0,3.107l7.529,7.044,7.529-7.045a2.1,2.1,0,0,0,0-3.106Z" transform="translate(4666.99 1333.967)" fill="#8d8888"/></g></svg>