<svg xmlns="http://www.w3.org/2000/svg" xmlns:xlink="http://www.w3.org/1999/xlink" width="463.122" height="266.688" viewBox="0 0 463.122 266.688">
  <defs>
    <linearGradient id="linear-gradient" x1="0.391" y1="0.031" x2="0.785" y2="0.786" gradientUnits="objectBoundingBox">
      <stop offset="0" stop-color="#8a72be"/>
      <stop offset="1" stop-color="#df13bd"/>
    </linearGradient>
    <linearGradient id="linear-gradient-2" x1="0.198" y1="-0.028" x2="1" y2="0.864" xlink:href="#linear-gradient"/>
    <linearGradient id="linear-gradient-3" x1="-0.864" y1="0" x2="0.5" y2="0.865" xlink:href="#linear-gradient"/>
    <filter id="UNLIMITED" x="52.122" y="198.688" width="411" height="68" filterUnits="userSpaceOnUse">
      <feOffset dy="3" input="SourceAlpha"/>
      <feGaussianBlur stdDeviation="3" result="blur"/>
      <feFlood flood-opacity="0.161"/>
      <feComposite operator="in" in2="blur"/>
      <feComposite in="SourceGraphic"/>
    </filter>
  </defs>
  <g id="logo-bos" transform="translate(-215.878 -167.312)">
    <path id="Path_1" data-name="Path 1" d="M82.725-5.411c57.526-5.047,102.1,38.359,90.59,77.728s-58,46.158-78.469,41.879S62.64,98.129,59.936,90.488,55.88,77.365,60.993,65.251C63.787,60.8,63.3,60.287,63.3,60.287s1.088-121.541-.654-124.094-2.579-2.261-8.529-3.625A111.507,111.507,0,0,0,38.85-69.263H86.233l33.491,1.67s40.809,4.136,40.113,33.164-48.2,33.673-48.2,33.673,28.594-16.256,29.426-33.673-11.046-25.617-20.282-29.378S86.238-67.95,86.233-67.432c-.227,25.717-.965,115.486,0,115.365a32.46,32.46,0,0,1,8.614.079s-11.132.364-18.476,4.081c-5.518,2.792-10.363,8.426-12.693,13.158C60.344,72.02,59.8,82.3,62.62,86.615c5.432,9,13.668,12.671,32.226,14.976s50.518-7.066,56.91-36.34-21.765-66.99-75.423-63.6S.357,53.424.357,53.424,25.2-.364,82.725-5.411Z" transform="translate(215.521 236.575)" fill="url(#linear-gradient)"/>
    <g id="Path_2" data-name="Path 2" transform="translate(498.316 236.575)" fill="url(#linear-gradient-2)">
      <path d="M 106.0363082885742 114.8140869140625 C 101.6935653686523 114.8140869140625 97.58362579345703 114.4316787719727 94.14962768554688 113.7080154418945 C 85.10457611083984 111.8019714355469 76.90553283691406 108.1725845336914 70.43886566162109 103.2122497558594 C 67.71281433105469 101.121208190918 65.38117218017578 98.86689758300781 63.50872039794922 96.51199340820313 C 61.82555389404297 94.39513397216797 60.5786247253418 92.25877380371094 59.9027214050293 90.33389282226563 C 58.63617324829102 86.72696685791016 57.58479309082031 83.42655944824219 57.54807662963867 79.55882263183594 C 57.51023101806641 75.57210540771484 58.58331298828125 71.10585784912109 60.92496109008789 65.50560760498047 C 62.42287063598633 63.10478973388672 64.30127716064453 60.31333541870117 66.87957763671875 57.77449035644531 C 69.42047882080078 55.27246856689453 72.43840789794922 53.16544342041016 76.37722015380859 51.14353942871094 C 79.80296325683594 49.3850212097168 83.426513671875 48.64199447631836 86.46273040771484 48.36944580078125 C 83.18048095703125 48.92638778686523 78.93099212646484 49.92726898193359 75.50007629394531 51.67789459228516 C 69.72888946533203 54.6213493347168 64.90888977050781 60.51784896850586 62.69219589233398 65.05582427978516 C 59.27755355834961 72.0447998046875 58.79200744628906 82.45703887939453 61.67353057861328 86.90110778808594 C 68.89576721191406 98.03975677490234 75.87641143798828 99.82691955566406 93.98441314697266 102.0943222045898 C 95.77305603027344 102.3182983398438 97.67874145507813 102.4318466186523 99.64850616455078 102.4318466186523 C 120.4979553222656 102.4318466186523 145.4492034912109 90.83747100830078 150.9629516601563 65.38111114501953 C 153.8115844726563 52.22944259643555 149.9139099121094 37.82875442504883 140.2693634033203 25.87154006958008 C 127.3308181762695 9.830538749694824 106.7489318847656 0.9963486194610596 82.31510162353516 0.9963486194610596 C 80.13219451904297 0.9963486194610596 77.89241027832031 1.068610548973083 75.65793609619141 1.211110591888428 C 51.55368804931641 2.748261213302612 33.94253921508789 13.64427185058594 22.49898719787598 23.91003608703613 C 27.76484680175781 18.65032005310059 33.407958984375 14.03233051300049 39.33600616455078 10.1364917755127 C 48.9228401184082 3.836158275604248 59.29903030395508 -0.5918656587600708 70.17633819580078 -3.024556159973145 C 70.71234130859375 -3.144460916519165 70.9542236328125 -3.458675146102905 71.06272125244141 -3.701151371002197 C 71.53672027587891 -4.760246753692627 70.50897979736328 -6.601484775543213 68.64324188232422 -9.943984985351563 C 65.39521789550781 -15.76288986206055 59.95903015136719 -25.50198554992676 59.93095779418945 -37.31855773925781 C 59.91986465454102 -41.98176956176758 60.9132194519043 -46.26084136962891 62.8834342956543 -50.03696060180664 C 64.79243469238281 -53.69579315185547 67.62097930908203 -56.8912467956543 71.29050445556641 -59.5345573425293 C 78.55036163330078 -64.76412963867188 89.01314544677734 -67.75717163085938 101.5477676391602 -68.19012451171875 C 102.2091522216797 -68.21295928955078 102.9115524291992 -68.22453308105469 103.6354370117188 -68.22453308105469 C 109.8594360351563 -68.22453308105469 117.285888671875 -67.42198181152344 124.010627746582 -66.02267456054688 C 132.1555480957031 -64.32781982421875 138.6949615478516 -61.88677215576172 142.9218597412109 -58.96341323852539 L 142.9302215576172 -58.95762634277344 L 142.9388122558594 -58.95219802856445 C 148.5972442626953 -55.36988830566406 152.7003631591797 -51.31353378295898 155.1342163085938 -46.89579391479492 C 157.4835052490234 -42.6316032409668 157.7666473388672 -38.93274688720703 157.5904998779297 -36.5806770324707 C 157.4258880615234 -34.38277053833008 156.5823211669922 -32.94617462158203 154.9357604980469 -32.05962753295898 C 153.4111480712891 -31.23876953125 151.3932189941406 -30.96607971191406 149.2568206787109 -30.67738914489746 C 148.7559356689453 -30.60972213745117 148.238037109375 -30.53972244262695 147.7274627685547 -30.46224594116211 C 146.332275390625 -30.25055694580078 144.8738555908203 -30.1431999206543 143.3927459716797 -30.1431999206543 C 141.5967712402344 -30.1431827545166 140.2025756835938 -30.30341148376465 139.5478668212891 -30.39582252502441 L 139.5478668212891 -38.18722152709961 C 139.5492858886719 -42.71767425537109 137.4046478271484 -49.86660385131836 133.3029632568359 -54.76412582397461 C 126.5048370361328 -62.88119888305664 116.1160278320313 -67.00236511230469 101.5428848266602 -67.36317443847656 C 101.2394790649414 -67.37067413330078 100.9321517944336 -67.37448120117188 100.6293869018555 -67.37448120117188 C 92.0684814453125 -67.37448120117188 84.27438354492188 -64.36977386474609 79.24562835693359 -59.13077163696289 C 74.6868896484375 -54.38146209716797 72.43997955322266 -47.89884185791016 72.74784088134766 -40.38374710083008 C 73.01876831054688 -33.7701530456543 77.14784240722656 -23.31715202331543 87.89315032958984 -15.62346076965332 C 99.53591156005859 -7.286293983459473 115.9631042480469 -2.120341777801514 122.1472473144531 -0.1755799204111099 C 123.1060791015625 0.1259438842535019 123.7988662719727 0.3438248336315155 124.1817474365234 0.4816581606864929 C 132.5561981201172 3.495777130126953 140.2664031982422 7.655539035797119 147.0982513427734 12.84539604187012 C 153.7717132568359 17.91494369506836 159.3478851318359 23.76523017883301 163.6718902587891 30.23370552062988 C 168.0324096679688 36.75687408447266 170.9320068359375 43.63215637207031 172.2901000976563 50.66858673095703 C 173.7015228271484 57.98125457763672 173.3920593261719 65.22505950927734 171.3702850341797 72.19884490966797 C 169.1433563232422 79.88039398193359 165.4417724609375 86.73165893554688 160.3683166503906 92.56232452392578 C 155.8505096435547 97.75437164306641 150.225341796875 102.1693954467773 143.6490478515625 105.6847305297852 C 137.8455352783203 108.786994934082 131.3840942382813 111.1551361083984 124.4442901611328 112.7233276367188 C 118.3930740356445 114.0907287597656 112.0292434692383 114.8137054443359 106.040771484375 114.8140869140625 C 106.0394439697266 114.8140869140625 106.0376358032227 114.8140869140625 106.0363082885742 114.8140869140625 Z" stroke="none"/>
      <path d="M 104.8188171386719 -67.71510314941406 C 117.8469543457031 -66.84420776367188 127.3111877441406 -62.69712829589844 133.6862640380859 -55.08517456054688 C 137.8646240234375 -50.09610748291016 140.04931640625 -42.80783843994141 140.0478363037109 -38.18727111816406 C 140.0479431152344 -35.59117889404297 140.0478973388672 -32.35636138916016 140.0478515625 -30.83504486083984 C 140.7783660888672 -30.74774169921875 141.9536743164063 -30.64319610595703 143.3927154541016 -30.64319610595703 C 144.8487396240234 -30.64319610595703 146.2819061279297 -30.74864959716797 147.6524047851563 -30.95660400390625 C 148.1670074462891 -31.03467559814453 148.6869812011719 -31.10493469238281 149.1898345947266 -31.17288970947266 C 151.2799377441406 -31.45531463623047 153.2541198730469 -31.72210693359375 154.6987152099609 -32.49989318847656 C 156.2010955810547 -33.30876922607422 156.9391784667969 -34.57886505126953 157.0918884277344 -36.61803436279297 C 157.2629852294922 -38.90243530273438 156.9862213134766 -42.49803161621094 154.6962738037109 -46.65453338623047 C 152.3035583496094 -50.99762725830078 148.2577667236328 -54.99303436279297 142.6713562011719 -58.52974700927734 L 142.6374359130859 -58.55220031738281 C 138.4650726318359 -61.43784332275391 131.98876953125 -63.85181427001953 123.90869140625 -65.53317260742188 C 117.6375427246094 -66.83809661865234 110.7545013427734 -67.62158203125 104.8188171386719 -67.71510314941406 M 91.83290100097656 -66.7740478515625 C 83.6883544921875 -65.47271728515625 76.79498291015625 -62.88343811035156 71.58274078369141 -59.12884521484375 C 67.97705078125 -56.53150939941406 65.1993408203125 -53.39474487304688 63.32669830322266 -49.80567169189453 C 61.39431762695313 -46.10205841064453 60.42005157470703 -41.90117645263672 60.43093109130859 -37.31974792480469 C 60.44314575195313 -32.18476867675781 61.45543670654297 -27.04389190673828 63.52565002441406 -21.60334014892578 C 65.27731323242188 -16.99998474121094 67.47507476806641 -13.06262588500977 69.07984161376953 -10.18769836425781 C 71.08772277832031 -6.590507507324219 72.09555053710938 -4.784938812255859 71.51910400390625 -3.496913909912109 C 71.29965209960938 -3.006507873535156 70.86155700683594 -2.665485382080078 70.28548431396484 -2.536628723144531 C 59.46791076660156 -0.1172714233398438 49.14793395996094 4.286800384521484 39.61219787597656 10.55327606201172 C 37.87667846679688 11.69379043579102 36.16596984863281 12.89629364013672 34.48182678222656 14.15919876098633 C 46.92376708984375 6.240707397460938 60.86342620849609 1.653541564941406 75.6260986328125 0.7121124267578125 C 77.87107849121094 0.5689430236816406 80.12160491943359 0.4963493347167969 82.31510162353516 0.4963493347167969 C 106.9031219482422 0.4963493347167969 127.6232147216797 9.396610260009766 140.6585388183594 25.5576343536377 C 150.3984832763672 37.63311004638672 154.3324279785156 52.18677520751953 151.4516296386719 65.48696899414063 C 145.8791961669922 91.214111328125 120.6921997070313 102.9318542480469 99.64850616455078 102.9318542480469 C 97.65802764892578 102.9318542480469 95.73143768310547 102.8169860839844 93.92229461669922 102.5904693603516 C 76.01412200927734 100.3480682373047 68.55809783935547 98.43801879882813 61.25400543212891 87.17313385009766 C 59.79145812988281 84.91751098632813 59.10824584960938 81.24125671386719 59.33016967773438 76.82154083251953 C 59.54438781738281 72.55508422851563 60.6060791015625 68.18663024902344 62.24293518066406 64.83637237548828 C 62.63474273681641 64.03427124023438 63.10665130615234 63.19038391113281 63.64986419677734 62.32771301269531 C 62.79379272460938 63.50222778320313 62.0435791015625 64.65824890136719 61.37064361572266 65.73585510253906 C 59.06691741943359 71.25384521484375 58.01095581054688 75.64628601074219 58.04804992675781 79.55408477783203 C 58.08403015136719 83.34525299072266 59.12293243408203 86.60403442382813 60.37445831298828 90.16822814941406 C 61.0321044921875 92.04109191894531 62.25124359130859 94.12710571289063 63.90007781982422 96.20082092285156 C 65.74714660644531 98.5238037109375 68.04948425292969 100.7492980957031 70.74317169189453 102.8155136108398 C 75.21145629882813 106.2429656982422 82.91724395751953 110.8300628662109 94.25272369384766 113.2187805175781 C 97.65317535400391 113.9353256225586 101.7294082641602 114.3140869140625 106.0407943725586 114.3140869140625 C 111.9925537109375 114.3140869140625 118.3182678222656 113.595588684082 124.3340759277344 112.2362289428711 C 131.2300567626953 110.6779937744141 137.6492462158203 108.3255920410156 143.413330078125 105.2443237304688 C 149.9357604980469 101.757682800293 155.5133361816406 97.38046264648438 159.9911041259766 92.23429870605469 C 165.0165557861328 86.45870971679688 168.6834869384766 79.67096710205078 170.8900756835938 72.05960845947266 C 172.8895721435547 65.16261291503906 173.1954345703125 57.99751663208008 171.7991790771484 50.76334762573242 C 170.4537506103516 43.79270553588867 167.5794830322266 36.97903823852539 163.2561950683594 30.51158714294434 C 158.9631042480469 24.08930015563965 153.4250030517578 18.27949142456055 146.7957916259766 13.24353790283203 C 140.0044250488281 8.084442138671875 132.3390350341797 3.949016571044922 124.0123596191406 0.9521102905273438 C 123.6391296386719 0.8177299499511719 122.9504547119141 0.6011581420898438 121.9972915649414 0.3013954162597656 C 115.7923126220703 -1.649913787841797 99.30979156494141 -6.833271026611328 87.60205078125 -15.21691131591797 C 76.71024322509766 -23.01553344726563 72.52378845214844 -33.63715362548828 72.24824523925781 -40.36329650878906 C 71.93470001220703 -48.01767730712891 74.22962188720703 -54.62710571289063 78.88493347167969 -59.47700500488281 C 82.20691680908203 -62.93787384033203 86.70755004882813 -65.44153594970703 91.83290100097656 -66.7740478515625 M 103.6353378295898 -68.72456359863281 C 114.9747924804688 -68.72456359863281 133.7111358642578 -65.94158172607422 143.2062683105469 -59.37464904785156 C 155.9004516601563 -51.33805847167969 158.5268096923828 -42.38817596435547 158.0890960693359 -36.54334259033203 C 157.6513671875 -30.69853210449219 152.6174621582031 -30.69853210449219 147.8024291992188 -29.96791076660156 C 142.9874420166016 -29.23731994628906 139.0478363037109 -29.96791076660156 139.0478363037109 -29.96791076660156 C 139.0478363037109 -29.96791076660156 139.0479736328125 -34.66534423828125 139.0478363037109 -38.18722534179688 C 139.04931640625 -42.82582092285156 136.8031463623047 -49.80608367919922 132.9196166992188 -54.44309997558594 C 126.4470291137695 -62.17148590087891 116.285888671875 -66.49800872802734 101.5305023193359 -66.86334228515625 C 86.77498626708984 -67.22849273681641 72.50057220458984 -58.63533782958984 73.24741363525391 -40.40422058105469 C 73.55362701416016 -32.92945861816406 78.50398254394531 -22.96110534667969 88.18421936035156 -16.02998352050781 C 101.576171875 -6.440292358398438 121.4535827636719 -1.032009124755859 124.3511199951172 0.01123046875 C 158.6009826660156 12.33834838867188 180.23193359375 43.42746734619141 171.8505249023438 72.33805847167969 C 162.3414611816406 105.1384353637695 128.7207946777344 115.3140869140625 106.0407791137695 115.3140869140625 C 101.5120849609375 115.3140869140625 97.42417907714844 114.909049987793 94.04653167724609 114.1972808837891 C 73.75338745117188 109.9209213256836 62.11290740966797 98.13742065429688 59.43093109130859 90.49954223632813 C 56.74895477294922 82.86166381835938 55.40919494628906 77.38291931152344 60.47933959960938 65.27527618408203 C 64.11022186279297 59.45077514648438 67.757080078125 55.0064697265625 76.14888763427734 50.69873046875 C 84.54068756103516 46.3909912109375 94.04652404785156 48.0443229675293 94.04653167724609 48.04432678222656 C 94.04653167724609 48.04432678222656 83.00881195068359 48.40789794921875 75.72734069824219 52.12327575683594 C 70.25608062744141 54.91373062133789 65.4520263671875 60.54511260986328 63.14145660400391 65.27527618408203 C 59.83600616455078 72.04077911376953 59.29624176025391 82.31563568115234 62.09305572509766 86.62908935546875 C 69.03302764892578 97.3323974609375 75.64481353759766 99.29401397705078 94.04653167724609 101.5982055664063 C 95.80313873291016 101.8181610107422 97.683349609375 101.9318542480469 99.64849853515625 101.9318542480469 C 118.2696533203125 101.9318542480469 144.7415924072266 91.74227905273438 150.4742889404297 65.27527618408203 C 156.5431365966797 37.25630950927734 131.1922302246094 1.496353149414063 82.31509399414063 1.496353149414063 C 80.14990234375 1.496353149414063 77.94660949707031 1.566162109375 75.68974304199219 1.710086822509766 C 23.2459716796875 5.054485321044922 0.9952545166015625 52.08202362060547 0.3703765869140625 53.42465209960938 C 0.978912353515625 52.11638641357422 22.18658447265625 7.195968627929688 70.06722259521484 -3.512508392333984 C 73.76309967041016 -4.33929443359375 59.47698211669922 -17.94779205322266 59.43093109130859 -37.31736755371094 C 59.38491058349609 -56.68691253662109 76.28998565673828 -67.81803131103516 101.5305023193359 -68.68984222412109 C 102.1979675292969 -68.71289825439453 102.9013824462891 -68.72456359863281 103.6353378295898 -68.72456359863281 Z M 0.3703765869140625 53.42465209960938 C 0.3618927001953125 53.44288635253906 0.3574066162109375 53.45265960693359 0.3569183349609375 53.45374298095703 C 0.357421875 53.45263290405273 0.3618621826171875 53.44293975830078 0.3703765869140625 53.42465209960938 Z M 0.3569183349609375 53.45374298095703 C 0.356903076171875 53.45376968383789 0.3568878173828125 53.45378112792969 0.3568878173828125 53.45379638671875 C 0.3568878173828125 53.45378494262695 0.356903076171875 53.45376205444336 0.3569183349609375 53.45374298095703 Z M 0.3568878173828125 53.45379638671875 C 0.3568878173828125 53.45380783081055 0.35687255859375 53.45381546020508 0.35687255859375 53.45382308959961 C 0.35687255859375 53.45381927490234 0.3568878173828125 53.45380401611328 0.3568878173828125 53.45379638671875 Z M 0.35687255859375 53.45382308959961 C 0.35687255859375 53.45384216308594 0.3568572998046875 53.45384979248047 0.3568572998046875 53.45384979248047 C 0.3568572998046875 53.45384979248047 0.35687255859375 53.45383834838867 0.35687255859375 53.45382308959961 Z" stroke="none" fill="#707070"/>
    </g>
    <g id="Path_3" data-name="Path 3" transform="translate(436.082 283.664)" fill="url(#linear-gradient-3)">
      <path d="M 37.41762542724609 67.68441009521484 C 36.21309280395508 67.57685852050781 33.04627227783203 67.23466491699219 28.82305145263672 66.32662963867188 C 23.83481025695801 65.25410461425781 16.30923843383789 63.14997482299805 8.785052299499512 59.21661758422852 C 0.348580926656723 54.80636215209961 -6.370490550994873 49.03983306884766 -11.18553352355957 42.07721710205078 C -14.04219055175781 37.94647598266602 -16.2531623840332 33.34134674072266 -17.75704765319824 28.38976097106934 C -19.41347694396973 22.93597602844238 -20.25334739685059 16.92507553100586 -20.25334739685059 10.52403259277344 C -20.25334739685059 4.119589328765869 -19.41259002685547 -1.859810590744019 -17.75444793701172 -7.248039245605469 C -16.24946212768555 -12.13856792449951 -14.03706169128418 -16.6534538269043 -11.17871952056885 -20.66728210449219 C -6.361790657043457 -27.43146705627441 0.3597237765789032 -32.92202377319336 8.799095153808594 -36.98645401000977 C 16.32418060302734 -40.61055374145508 23.8487663269043 -42.40602493286133 28.83602333068848 -43.27406692504883 C 33.07124710083008 -44.0112190246582 36.23291778564453 -44.22175979614258 37.41762542724609 -44.27864837646484 L 37.41762542724609 -43.81171798706055 C 37.40132141113281 -43.81175994873047 37.38466644287109 -43.81178283691406 37.36765289306641 -43.81178283691406 C 34.92439651489258 -43.81178283691406 22.22381019592285 -43.29002380371094 12.10458087921143 -32.98960876464844 C 2.866766691207886 -23.58638191223145 -1.64193332195282 -8.943296432495117 -1.29626190662384 10.53290367126465 C -0.7800333499908447 39.62021636962891 9.826337814331055 53.58766174316406 18.63308143615723 60.18288803100586 C 23.63311004638672 63.92733383178711 28.59700965881348 65.74459075927734 31.8807373046875 66.60970306396484 C 34.54782485961914 67.31237030029297 36.53985977172852 67.51873016357422 37.41762542724609 67.57888793945313 L 37.41762542724609 67.68441009521484 Z" stroke="none"/>
      <path d="M 25.61915969848633 -42.13611602783203 C 20.93557357788086 -41.12136077880859 14.97496223449707 -39.40580749511719 9.016045570373535 -36.53597640991211 C 0.6534919738769531 -32.50856018066406 -6.003969192504883 -27.07197570800781 -10.77144622802734 -20.37725067138672 C -13.59870719909668 -16.40706634521484 -15.78733825683594 -11.94028472900391 -17.27656936645508 -7.100975036621094 C -18.92004776000977 -1.760421752929688 -19.75335311889648 4.169486999511719 -19.75335311889648 10.52404022216797 C -19.75335311889648 16.87182426452637 -18.92178344726563 22.83041000366211 -17.28172302246094 28.23428726196289 C -15.79466247558594 33.13405609130859 -13.60881614685059 37.69065475463867 -10.78489303588867 41.77750396728516 C -6.021139144897461 48.67171478271484 0.6315078735351563 54.38499450683594 8.988276481628418 58.75864028930664 C 15.31831550598145 62.07157897949219 21.6532096862793 64.0806884765625 26.45618438720703 65.26673126220703 C 23.95019340515137 64.19516754150391 21.14724159240723 62.69036865234375 18.3333683013916 60.58310317993164 C 9.437276840209961 53.92096328735352 -1.27635383605957 39.83131408691406 -1.796199798583984 10.54177856445313 C -2.144338607788086 -9.073545455932617 2.412553787231445 -23.8375129699707 11.74789237976074 -33.34000778198242 C 16.23312759399414 -37.90555953979492 21.2197437286377 -40.576171875 25.61915969848633 -42.13611602783203 M 37.91763305664063 -44.79839324951172 L 37.91763305664063 -43.30166625976563 C 37.91764068603516 -43.30167388916016 -1.788785934448242 -45.39327239990234 -0.7963542938232422 10.52404022216797 C 0.1960773468017578 66.44131469726563 37.91763305664063 67.10336303710938 37.91763305664063 67.10336303710938 L 37.91763305664063 68.22592163085938 C 37.91763305664063 68.22592163085938 -20.75335311889648 64.65671539306641 -20.75335311889648 10.52404022216797 C -20.75335311889648 -43.60865020751953 37.91763305664063 -44.79839324951172 37.91763305664063 -44.79839324951172 Z" stroke="none" fill="#707070"/>
    </g>
    <g id="Path_4" data-name="Path 4" transform="translate(493.753 283.664)" fill="url(#linear-gradient-3)">
      <path d="M -20.25334739685059 67.68451690673828 L -20.25334739685059 67.57888793945313 C -19.37559509277344 67.51873016357422 -17.38359451293945 67.31237030029297 -14.71656131744385 66.60970306396484 C -11.43287563323975 65.74459075927734 -6.469061851501465 63.92733383178711 -1.46911883354187 60.18288803100586 C 7.337481021881104 53.58766174316406 17.94366645812988 39.62021636962891 18.45989608764648 10.53290367126465 C 18.80556678771973 -8.943453788757324 14.29688167572021 -23.58661079406738 5.059066772460938 -32.98982620239258 C -5.059961795806885 -43.2900390625 -17.76020431518555 -43.81178283691406 -20.20337677001953 -43.81178283691406 C -20.22039031982422 -43.81178283691406 -20.23704719543457 -43.81175994873047 -20.25334739685059 -43.81171798706055 L -20.25334739685059 -44.27854156494141 C -19.06441497802734 -44.22126007080078 -15.88607788085938 -44.00928115844727 -11.6395902633667 -43.26844024658203 C -6.652432918548584 -42.39838027954102 0.8713812232017517 -40.599853515625 8.393352508544922 -36.97265243530273 C 16.82542419433594 -32.90656661987305 23.54078102111816 -27.41558265686035 28.35288047790527 -20.65225410461426 C 31.20792388916016 -16.63953971862793 33.417724609375 -12.12628173828125 34.92092514038086 -7.237882137298584 C 36.57696533203125 -1.852367758750916 37.41665267944336 4.123603820800781 37.41665267944336 10.52403259277344 C 37.41665267944336 16.92907524108887 36.57573699951172 22.94341850280762 34.91728210449219 28.4000186920166 C 33.41165161132813 33.35377502441406 31.19816780090332 37.96064758300781 28.33833885192871 42.09263229370117 C 23.51863861083984 49.0562744140625 16.79366683959961 54.8226318359375 8.350224494934082 59.23151779174805 C 0.8231812119483948 63.16188812255859 -6.702919006347656 65.26301574707031 -11.69107627868652 66.33353424072266 C -15.90265083312988 67.23738861083984 -19.05295181274414 67.57750701904297 -20.25334739685059 67.68451690673828 Z" stroke="none"/>
      <path d="M -8.454784393310547 -42.13607025146484 C -4.055526733398438 -40.57621002197266 0.9303112030029297 -37.90593338012695 5.415525436401367 -33.34048461914063 C 14.75100326538086 -23.83798980712891 19.3079719543457 -9.073867797851563 18.9598331451416 10.54177856445313 C 18.44000244140625 39.831298828125 7.726541519165039 53.92096328735352 -1.169397354125977 60.58310317993164 C -3.983226776123047 62.69036865234375 -6.785945892333984 64.19508361816406 -9.291896820068359 65.26664733886719 C -4.496410369873047 64.08241271972656 1.812077522277832 62.08145904541016 8.118786811828613 58.78830337524414 C 16.48960304260254 54.41733169555664 23.15412521362305 48.70436096191406 27.92720222473145 41.80807113647461 C 30.75749588012695 37.71876525878906 32.94835662841797 33.15871810913086 34.43889617919922 28.25460815429688 C 36.08300018310547 22.84519386291504 36.91664886474609 16.87976264953613 36.91664886474609 10.52404022216797 C 36.91664886474609 4.177455902099609 36.08543395996094 -1.745668411254883 34.44610977172852 -7.080821990966797 C 32.96041870117188 -11.91592788696289 30.77686309814453 -16.37946701049805 27.95611000061035 -20.34743881225586 C 23.19815635681152 -27.04045104980469 16.55283355712891 -32.47782135009766 8.204710006713867 -36.50851440429688 C 2.223798751831055 -39.39623641967773 -3.762310028076172 -41.11927795410156 -8.454784393310547 -42.13607025146484 M -20.75335121154785 -44.79839324951172 C -20.75335121154785 -44.79839324951172 37.91664886474609 -43.60865020751953 37.91664886474609 10.52404022216797 C 37.91664886474609 64.65671539306641 -20.75335121154785 68.22592163085938 -20.75335121154785 68.22592163085938 L -20.75335121154785 67.10336303710938 C -20.75335121154785 67.10336303710938 16.96757125854492 66.44131469726563 17.95998764038086 10.52404022216797 C 18.95240211486816 -45.39324951171875 -20.75336265563965 -43.3016357421875 -20.75335121154785 -43.30166625976563 L -20.75335121154785 -44.79839324951172 Z" stroke="none" fill="#707070"/>
    </g>
    <g transform="matrix(1, 0, 0, 1, 215.88, 167.31)" filter="url(#UNLIMITED)">
      <text id="UNLIMITED-2" data-name="UNLIMITED" transform="translate(61.12 243.69)" fill="#915ac7" font-size="42" font-family="Optima" letter-spacing="0.5em"><tspan x="0" y="0">UNLIMITED</tspan></text>
    </g>
  </g>
</svg>
