<svg width="362" height="360" viewBox="0 0 362 360" fill="none" xmlns="http://www.w3.org/2000/svg">
<rect x="7.5" y="7.5" width="347" height="345" rx="46.5" stroke="url(#paint0_linear_101_32)" stroke-width="15"/>
<path d="M143.011 160.391C157.651 169.365 157.651 190.635 143.011 199.609L88.5201 233.011C73.1948 242.405 53.5 231.378 53.5 213.402V146.598C53.5 128.622 73.1949 117.595 88.5202 126.989L143.011 160.391Z" fill="#322988"/>
<path d="M131.438 167.122C141.183 172.942 141.183 187.058 131.438 192.878L88.6914 218.409C78.6931 224.38 66 217.177 66 205.531L66 154.469C66 142.823 78.6931 135.62 88.6915 141.591L131.438 167.122Z" fill="#6252F2"/>
<path d="M282.011 74.3909C296.651 83.365 296.651 104.635 282.011 113.609L227.52 147.011C212.195 156.405 192.5 145.378 192.5 127.402V60.5978C192.5 42.6224 212.195 31.5945 227.52 40.9888L282.011 74.3909Z" fill="#322988"/>
<path d="M270.438 81.1221C280.183 86.9422 280.183 101.058 270.438 106.878L227.691 132.409C217.693 138.38 205 131.177 205 119.531V68.4691C205 56.8232 217.693 49.6196 227.691 55.5912L270.438 81.1221Z" fill="#6252F2"/>
<path d="M243.661 172.978C258.113 181.981 258.113 203.019 243.661 212.022L224.661 223.858C209.341 233.401 189.5 222.385 189.5 204.336V180.664C189.5 162.615 209.341 151.599 224.661 161.142L243.661 172.978Z" fill="#302C4F"/>
<path d="M238.392 179.677C248.014 185.518 248.014 199.482 238.392 205.323L221.079 215.831C211.083 221.898 198.296 214.701 198.296 203.008V181.992C198.296 170.299 211.083 163.102 221.079 169.169L238.392 179.677Z" fill="#D52DFF"/>
<path d="M87.9893 113.609C73.3495 104.635 73.3495 83.365 87.9893 74.3909L142.48 40.9888C157.805 31.5945 177.5 42.6224 177.5 60.5979V127.402C177.5 145.378 157.805 156.405 142.48 147.011L87.9893 113.609Z" fill="#322988"/>
<path d="M99.5617 106.878C89.817 101.058 89.817 86.9422 99.5617 81.1221L142.309 55.5911C152.307 49.6195 165 56.8232 165 68.4691V119.531C165 131.177 152.307 138.38 142.309 132.409L99.5617 106.878Z" fill="#6252F2"/>
<path d="M87.9893 285.609C73.3495 276.635 73.3495 255.365 87.9893 246.391L142.48 212.989C157.805 203.595 177.5 214.622 177.5 232.598V299.402C177.5 317.378 157.805 328.405 142.48 319.011L87.9893 285.609Z" fill="#322988"/>
<path d="M99.5617 278.878C89.817 273.058 89.817 258.942 99.5617 253.122L142.309 227.591C152.307 221.62 165 228.823 165 240.469V291.531C165 303.177 152.307 310.38 142.309 304.409L99.5617 278.878Z" fill="#6252F2"/>
<defs>
<linearGradient id="paint0_linear_101_32" x1="22.5" y1="14" x2="304.5" y2="327" gradientUnits="userSpaceOnUse">
<stop stop-color="#6252F2"/>
<stop offset="0.637655" stop-color="#AB3AFA"/>
<stop offset="1" stop-color="#D52DFF"/>
</linearGradient>
</defs>
</svg>
